<svg xmlns="http://www.w3.org/2000/svg" viewBox="0 0 16 16">
  <path stroke-width=".25" d="M8 0a8 8 0 0 0-8 8 8 8 0 0 0 8 8 8 8 0 0 0 8-8 8 8 0 0 0-8-8zm-.095 2.953c2.705 0 5.015 2.233 5.015 4.948a5 5 0 0 1-.38 2.08L7.865 7.897l2.682-.264c-.125-1.275-1.407-2.31-2.642-2.31a2.523 2.523 0 0 0-.822.138L5.868 3.396a4.88 4.88 0 0 1 2.037-.443zm-4.69 3.233l2.165.92a4.947 4.947 0 0 0-.142.892c.085 1.578 1.272 2.64 2.667 2.64a2.532 2.533 0 0 0 .585-.067l1.225 2.09a4.882 4.883 0 0 1-1.817.347c-2.705 0-5.023-2.192-5.023-4.897a5.575 5.575 0 0 1 .34-1.925z"/>
</svg>
