
<svg id="Layer_2_Image" data-name="Layer 2 Image" xmlns="http://www.w3.org/2000/svg" viewBox="0 0 104.97 112.63"><defs><style>.cls-1{fill:#fff;}.cls-2{fill:#e1e1e1;}.cls-3{fill:#fbfbfb;}</style></defs><title>etherinc</title><path class="cls-1" d="M445.88,422.41v30.3H393.39v-0.08l3.28-1.84,5.18-3,5.94-3.41,5-2.88,6-3.44,5-2.85,6-3.46c2-1.12,3.92-2.21,5.87-3.33l5.94-3.42,4-2.29a0.28,0.28,0,0,1,.11,0v-0.33h0Z" transform="translate(-340.9 -340.08)"/><path class="cls-2" d="M394.62,342q3.53,5.57,7.09,11.14,4.15,6.5,8.29,13l5.49,8.63,7.9,12.4,6.29,9.88,7.09,11.14q3.16,5,6.32,9.93c0.85,1.35,1.69,2.72,2.54,4.07a0.86,0.86,0,0,0,.21.16v0.33a0.28,0.28,0,0,0-.11,0l-4,2.29-5.94,3.42c-1.95,1.12-3.91,2.21-5.87,3.33l-6,3.46-5,2.85-6,3.44-5,2.88-5.94,3.41-5.18,3-3.28,1.84V340.89c0-.25,0-0.48,0-0.73h0.12C393.89,340.79,394.23,341.43,394.62,342Z" transform="translate(-340.9 -340.08)"/><path class="cls-1" d="M393.33,340.08h52.54v82.33h0a0.86,0.86,0,0,1-.21-0.16c-0.85-1.36-1.69-2.72-2.54-4.07q-3.15-5-6.32-9.93l-7.09-11.14-6.29-9.88-7.9-12.4L410,366.19q-4.14-6.5-8.29-13-3.55-5.57-7.09-11.14c-0.39-.62-0.73-1.26-1.1-1.89h-0.12c0,0.25,0,.48,0,0.73V451.81h0v-111C393.35,340.56,393.34,340.32,393.33,340.08Z" transform="translate(-340.9 -340.08)"/><path class="cls-1" d="M393.39,451.81v0.89H340.9v-30a0.28,0.28,0,0,1,.11,0c1.35,0.76,2.7,1.51,4,2.28,2,1.14,4,2.3,5.94,3.43s3.92,2.21,5.87,3.32l6,3.46,5,2.85,6,3.44,5,2.88,5.94,3.42,5.18,3c1.06,0.61,2.14,1.21,3.28,1.85v-0.74h0Z" transform="translate(-340.9 -340.08)"/><path class="cls-1" d="M341.12,422.17a0.89,0.89,0,0,1-.21.16V340.08h52.32c-0.37.63-.71,1.28-1.11,1.89q-3.53,5.58-7.08,11.14-4.14,6.5-8.3,13l-5.49,8.63-7.89,12.4L357.07,397,350,408.16q-3.16,5-6.31,9.93C342.8,419.45,342,420.81,341.12,422.17Z" transform="translate(-340.9 -340.08)"/><path class="cls-3" d="M393.35,451.81v0.74c-1.14-.64-2.21-1.24-3.28-1.85l-5.18-3-5.94-3.42-5-2.87-6-3.44-5-2.85-6-3.46c-1.95-1.12-3.91-2.21-5.87-3.32s-4-2.29-5.94-3.43c-1.34-.77-2.69-1.52-4-2.28a0.28,0.28,0,0,0-.11,0v-0.34a0.89,0.89,0,0,0,.21-0.16c0.85-1.36,1.69-2.72,2.55-4.07q3.15-5,6.31-9.93l7.1-11.15,6.28-9.88,7.89-12.4,5.49-8.62q4.15-6.49,8.3-13,3.55-5.57,7.08-11.14c0.39-.62.74-1.26,1.11-1.89h0.11c0,0.25,0,.49,0,0.73v111Z" transform="translate(-340.9 -340.08)"/></svg>
