<svg xmlns="http://www.w3.org/2000/svg" xmlns:xlink="http://www.w3.org/1999/xlink" id="svg1175" viewBox="0 0 367.801 71.701">
  <defs id="defs1157">
    <linearGradient id="linearGradient1589" x1="57.55" x2="-.67" y1="4.4" y2="90.08" gradientUnits="userSpaceOnUse">
      <stop id="stop1585" offset="0" stop-color="#00ba95"/>
      <stop id="stop1587" offset="1" stop-color="#07627e"/>
    </linearGradient>
    <linearGradient id="linearGradient1577" x1="57.55" x2="-.67" y1="4.4" y2="90.08" gradientUnits="userSpaceOnUse">
      <stop id="stop1573" offset="0" stop-color="#1abc9c"/>
      <stop id="stop1575" offset="1" stop-color="#083060" stop-opacity=".584"/>
    </linearGradient>
    <linearGradient id="linearGradient1571" x1="57.55" x2="-.67" y1="4.4" y2="90.08" gradientUnits="userSpaceOnUse">
      <stop id="stop1567" offset="0" stop-color="#1abc9c"/>
      <stop id="stop1569" offset="1" stop-color="#1b4a83" stop-opacity=".583"/>
    </linearGradient>
    <style id="style1145">
      .cls-3{fill:#fff}
    </style>
    <linearGradient id="linear-gradient" x1="57.55" x2="-.67" y1="4.4" y2="90.08" gradientUnits="userSpaceOnUse">
      <stop id="stop1147" offset="0" stop-color="#1abc9c"/>
      <stop id="stop1149" offset="1" stop-color="#1a5daf"/>
    </linearGradient>
    <clipPath id="clip-path">
      <circle id="circle1152" cx="36.76" cy="35" r="32" fill="none"/>
    </clipPath>
    <linearGradient id="linear-gradient-2" x1="36.72" x2="27.74" y1="3.36" y2="63.33" xlink:href="#linear-gradient"/>
    <linearGradient id="linear-gradient-3" x1="46.32" x2="37.33" y1="4.8" y2="64.77" xlink:href="#linear-gradient"/>
    <linearGradient id="linear-gradient-3-9" x1="46.32" x2="37.33" y1="4.8" y2="64.77" gradientTransform="translate(-.331 -.06)" xlink:href="#linearGradient1577"/>
    <linearGradient id="linear-gradient-2-3" x1="36.72" x2="27.74" y1="3.36" y2="63.33" gradientTransform="translate(-.331 -.06)" xlink:href="#linearGradient1571"/>
    <linearGradient id="linear-gradient-2-3-6" x1="36.72" x2="27.74" y1="3.36" y2="63.33" gradientTransform="translate(-.331 -.06)" xlink:href="#linearGradient1571-3"/>
    <linearGradient id="linearGradient1571-3" x1="57.55" x2="-.67" y1="4.4" y2="90.08" gradientUnits="userSpaceOnUse">
      <stop id="stop1567-0" offset="0" stop-color="#1abc9c"/>
      <stop id="stop1569-1" offset="1" stop-color="#1b4a83" stop-opacity=".583"/>
    </linearGradient>
    <filter id="filter1563-8" width="1.067" height="1.067" x="-.034" y="-.034" color-interpolation-filters="sRGB">
      <feGaussianBlur id="feGaussianBlur1565-6" stdDeviation=".383"/>
    </filter>
    <linearGradient id="linear-gradient-3-9-5" x1="46.32" x2="37.33" y1="4.8" y2="64.77" gradientTransform="translate(-.331 -.06)" xlink:href="#linearGradient1577-9"/>
    <linearGradient id="linearGradient1577-9" x1="57.55" x2="-.67" y1="4.4" y2="90.08" gradientUnits="userSpaceOnUse">
      <stop id="stop1573-6" offset="0" stop-color="#1abc9c"/>
      <stop id="stop1575-5" offset="1" stop-color="#083060" stop-opacity=".584"/>
    </linearGradient>
    <filter id="filter1403-7" width="1.067" height="1.067" x="-.034" y="-.034" color-interpolation-filters="sRGB">
      <feGaussianBlur id="feGaussianBlur1405-3" stdDeviation=".394"/>
    </filter>
    <filter id="filter2245-8" width="1.086" height="1.086" x="-.043" y="-.043" color-interpolation-filters="sRGB">
      <feGaussianBlur id="feGaussianBlur2247-6" stdDeviation=".724"/>
    </filter>
    <filter id="filter1809-9" width="1.282" height="1.775" x="-.141" y="-.387" color-interpolation-filters="sRGB">
      <feGaussianBlur id="feGaussianBlur1811-1" stdDeviation="2.715"/>
    </filter>
    <linearGradient id="linearGradient3329" x1="54.558" x2="-.725" y1="3.346" y2="96.379" gradientTransform="translate(-.024 2.318)" gradientUnits="userSpaceOnUse" xlink:href="#linear-gradient"/>
  </defs>
  <g id="layer4" transform="translate(-1.328 .373)">
    <text id="text16617" x="87.455" y="45.398" fill="#f6f6f6" font-family="sans-serif" font-size="26.667" font-weight="400" letter-spacing="0" style="line-height:300" word-spacing="0">
      <tspan id="tspan16615" x="87.455" y="45.398" font-family="Raleway" font-size="31.733" font-weight="600" style="-inkscape-font-specification:'Raleway Semi-Bold'">MyEtherWallet CX</tspan>
    </text>
  </g>
  <circle id="circle1161" cx="36.736" cy="37.318" r="32" fill="url(#linearGradient3329)"/>
  <ellipse id="path1599" cx="37.123" cy="16.667" fill="#fffed8" fill-opacity=".549" stroke-linecap="round" stroke-linejoin="round" stroke-width="15.118" filter="url(#filter1809-9)" opacity=".51" rx="23.071" ry="8.409" transform="matrix(1.04214 0 0 1.22053 -2.086 2.018)"/>
  <g id="layer1-2" transform="translate(-.024 2.318)">
    <path id="path1165" fill="url(#linear-gradient-2-3-6)" d="M38.769 47.44a10.13 10.13 0 0 1-2.34.27c-5.58 0-10.33-4.25-10.67-10.56a19.86 19.86 0 0 1 .57-3.57l-8.66-3.64a22.3 22.3 0 0 0-1.36 7.7c0 10.82 9.27 19.59 20.09 19.59a19.53 19.53 0 0 0 7.27-1.43z" filter="url(#filter1563-8)"/>
    <path id="path1167" fill="url(#linear-gradient-3-9-5)" d="M36.429 16.94a19.52 19.52 0 0 0-8.15 1.77l4.86 8.26a10.09 10.09 0 0 1 3.29-.55c4.94 0 10.18 4.14 10.68 9.24l-11.727 1.056L54.97 45.04a20 20 0 0 0 1.52-8.32c0-10.78-9.24-19.78-20.06-19.78z" filter="url(#filter1403-7)"/>
    <path id="path1169-1" fill="#595b57" fill-opacity=".805" d="M38.769 45.3a10.13 10.13 0 0 1-2.34.27c-5.58 0-10.33-4.25-10.67-10.56.08-1.204.272-2.4.57-3.57l-8.66-3.68a22.3 22.3 0 0 0-1.36 7.7c0 10.82 9.27 19.59 20.09 19.59a19.53 19.53 0 0 0 7.27-1.39zm-2.34-30.47a19.52 19.52 0 0 0-8.15 1.77l4.86 8.26a10.09 10.09 0 0 1 3.29-.55c4.94 0 10.069 4.14 10.569 9.24l-10.73 1.056 18.7 8.334a20 20 0 0 0 1.52-8.32c0-10.86-9.24-19.79-20.06-19.79z" class="cls-3" filter="url(#filter2245-8)"/>
    <path id="path1169" fill="#fff" d="M38.769 45.3a10.13 10.13 0 0 1-2.34.27c-5.58 0-10.33-4.25-10.67-10.56.08-1.204.272-2.4.57-3.57l-8.66-3.68a22.3 22.3 0 0 0-1.36 7.7c0 10.82 9.27 19.59 20.09 19.59a19.53 19.53 0 0 0 7.27-1.39zm-2.34-30.47a19.52 19.52 0 0 0-8.15 1.77l4.86 8.26a10.09 10.09 0 0 1 3.29-.55c4.94 0 10.069 4.14 10.569 9.24l-10.73 1.056 18.7 8.334a20 20 0 0 0 1.52-8.32c0-10.86-9.24-19.79-20.06-19.79z" class="cls-3"/>
  </g>
  <g id="layer3-7" transform="translate(-.024 2.318)">
    <path id="path1163-0" fill="#fff" d="M18.71 8.611c-.998.638-3.006 2.32-3.006 2.32L4.834 35.907l6.255.27 6.957-17.296 3.63 7.677-3.643 9.602 5.778-.02 1.149-2.485 14.467 29.832h3.318l5.068-10.513 4.614 9.988s1.96-1.08 4.066-2.767c2.106-1.686 2.795-2.475 2.795-2.475l9.268-21.922-6.168-.078-7.564 18.057-3.59-7.534 4.424-10.465-6.142-.06-1.43 3.998L33.549 8.338l-3.747-.11-4.722 11.82-5.362-12.075s-.288.18-1.007.638zm12.937 9.866l12.94 27.85-3.4 7.43L28.41 26.872z" opacity=".2"/>
  </g>
</svg>
