<svg xmlns="http://www.w3.org/2000/svg" xmlns:xlink="http://www.w3.org/1999/xlink" viewBox="0 0 315 70">
  <defs>
    <linearGradient id="e" x1="57.55" x2="-.67" y1="4.4" y2="90.08" gradientUnits="userSpaceOnUse">
      <stop offset="0" stop-color="#1abc9c"/>
      <stop offset="1" stop-color="#1a5daf"/>
    </linearGradient>
    <linearGradient id="d" x1="57.55" x2="-.67" y1="4.4" y2="90.08" gradientUnits="userSpaceOnUse">
      <stop offset="0" stop-color="#00ba95"/>
      <stop offset="1" stop-color="#07627e"/>
    </linearGradient>
    <linearGradient id="b" x1="57.55" x2="-.67" y1="4.4" y2="90.08" gradientUnits="userSpaceOnUse">
      <stop offset="0" stop-color="#1abc9c"/>
      <stop offset="1" stop-color="#083060" stop-opacity=".584"/>
    </linearGradient>
    <linearGradient id="c" x1="57.55" x2="-.67" y1="4.4" y2="90.08" gradientUnits="userSpaceOnUse">
      <stop offset="0" stop-color="#1abc9c"/>
      <stop offset="1" stop-color="#1b4a83" stop-opacity=".583"/>
    </linearGradient>
    <linearGradient id="a" x1="57.55" x2="-.67" y1="4.4" y2="90.08" gradientUnits="userSpaceOnUse">
      <stop offset="0" stop-color="#1abc9c"/>
      <stop offset="1" stop-color="#1a5daf"/>
    </linearGradient>
    <linearGradient id="j" x1="46.32" x2="37.33" y1="4.8" y2="64.77" gradientTransform="translate(-.331 -.06)" xlink:href="#b"/>
    <linearGradient id="h" x1="36.72" x2="27.74" y1="3.36" y2="63.33" gradientTransform="translate(-.331 -.06)" xlink:href="#c"/>
    <filter id="i" width="1.067" height="1.067" x="-.034" y="-.034" color-interpolation-filters="sRGB">
      <feGaussianBlur stdDeviation=".383"/>
    </filter>
    <filter id="k" width="1.067" height="1.067" x="-.034" y="-.034" color-interpolation-filters="sRGB">
      <feGaussianBlur stdDeviation=".394"/>
    </filter>
    <filter id="l" width="1.086" height="1.086" x="-.043" y="-.043" color-interpolation-filters="sRGB">
      <feGaussianBlur stdDeviation=".724"/>
    </filter>
    <filter id="g" width="1.282" height="1.775" x="-.141" y="-.387" color-interpolation-filters="sRGB">
      <feGaussianBlur stdDeviation="2.715"/>
    </filter>
    <linearGradient id="f" x1="54.558" x2="-.725" y1="3.346" y2="96.379" gradientTransform="translate(-.139 .454)" gradientUnits="userSpaceOnUse" xlink:href="#e"/>
  </defs>
  <g fill="#f3f3f3" aria-label="MyEtherWallet" font-family="Raleway" font-size="31.733" font-weight="600" letter-spacing="0" style="line-height:300" word-spacing="0">
    <path d="M107.083 45.894V29.678l-6.696 12.28H98.42l-6.728-12.28v16.216h-3.554v-22.53h3.808l7.457 13.771 7.458-13.772h3.808v22.53zM115.719 49.829q.444.095.825.127.38.031.698.031.413 0 .73-.095t.603-.507q.317-.381.666-1.206.381-.825.889-2.285l-6.791-16.597h3.586l5.14 13.519 4.57-13.519h3.3l-7.584 20.437q-.635 1.713-1.904 2.538-1.27.825-2.951.825-.92 0-1.777-.254zM148.465 42.752v3.142h-15.454v-22.53h15.169v3.14h-11.615v6.41h10.06v2.952h-10.06v6.886zM160.705 45.037q-.698.317-1.872.73-1.143.38-2.507.38-.825 0-1.555-.221-.698-.223-1.27-.667-.54-.444-.856-1.142-.318-.73-.318-1.746V31.995h-2.221v-2.698h2.221V23.84h3.49v5.458h3.618v2.698h-3.617v9.266q0 .888.508 1.3.507.382 1.237.382.73 0 1.396-.254.667-.254.984-.413zM177.85 45.894h-3.49v-9.298q0-2.285-.826-3.364-.825-1.11-2.348-1.11-.698 0-1.428.285-.73.286-1.397.825-.634.508-1.174 1.238-.507.698-.761 1.555v9.869h-3.49V22.729h3.49v9.9q.983-1.713 2.602-2.665 1.65-.952 3.586-.952 1.523 0 2.538.57 1.016.54 1.619 1.46.603.92.825 2.159.254 1.205.254 2.57zM189.361 46.211q-1.936 0-3.522-.666-1.587-.698-2.73-1.872-1.11-1.175-1.745-2.73-.603-1.554-.603-3.3 0-1.745.603-3.3.635-1.587 1.746-2.76 1.142-1.207 2.729-1.873 1.586-.698 3.554-.698 1.935 0 3.49.698 1.587.698 2.698 1.872 1.11 1.143 1.682 2.697.603 1.524.603 3.206 0 .38-.032.73-.032.317-.064.539h-13.296q.095 1.11.508 1.999.444.889 1.11 1.555.699.635 1.555.984.889.349 1.84.349.7 0 1.365-.159.699-.19 1.27-.508.571-.349 1.015-.825.445-.476.698-1.047l2.983.857q-.856 1.872-2.856 3.078-1.967 1.174-4.601 1.174zm5.046-9.869q-.096-1.047-.54-1.936-.412-.888-1.079-1.491-.666-.635-1.555-.984-.888-.349-1.872-.349-.984 0-1.872.35-.857.348-1.523.983-.667.603-1.08 1.491-.412.889-.507 1.936zM210.01 32.312q-2.031.063-3.586.952-1.555.857-2.253 2.475v10.155h-3.49V29.297h3.236v3.713q.889-1.713 2.253-2.792 1.397-1.08 2.951-1.08h.508q.222 0 .381.032zM220.651 23.458h3.332l2.76 7.648 2.793-7.648h3.364l-3.871 10.028 3.395 8.283 7.013-18.406h3.872l-9.266 22.53h-3.079l-4.188-10.09-4.22 10.09h-3.047l-9.266-22.53h3.84l7.076 18.406 3.332-8.283zM248.292 46.211q-1.206 0-2.253-.38-1.015-.413-1.777-1.111-.73-.698-1.174-1.65-.413-.952-.413-2.063 0-1.174.508-2.126t1.428-1.65q.952-.698 2.222-1.08 1.3-.38 2.856-.38 1.174 0 2.316.222 1.142.19 2.063.54V35.39q0-1.84-1.047-2.856-1.048-1.047-3.015-1.047-1.333 0-2.634.508-1.27.476-2.634 1.396l-1.079-2.221q3.205-2.158 6.664-2.158 3.427 0 5.331 1.745 1.904 1.745 1.904 5.014v5.998q0 .602.223.856.222.254.761.286v2.983q-.508.095-.952.127-.412.032-.761.032-1.016-.064-1.555-.54-.508-.476-.635-1.27l-.095-1.046q-1.11 1.46-2.761 2.253-1.618.761-3.49.761zm.952-2.57q1.27 0 2.38-.444 1.143-.476 1.777-1.302.667-.57.667-1.205V38.5q-.889-.35-1.904-.54-.984-.19-1.936-.19-1.872 0-3.078.825-1.174.794-1.174 2.126 0 1.238.92 2.095.92.825 2.348.825zM261.824 22.729h3.49v18.278q0 .92.476 1.46.476.507 1.333.507.35 0 .825-.095.476-.127.889-.317l.507 2.824q-.761.35-1.808.54-1.048.222-1.873.222-1.809 0-2.824-.984t-1.015-2.793zM271.306 22.729h3.491v18.278q0 .92.476 1.46.476.507 1.333.507.349 0 .825-.095.476-.127.888-.317l.508 2.824q-.761.35-1.809.54-1.047.222-1.872.222-1.809 0-2.824-.984-1.016-.984-1.016-2.793zM288.342 46.211q-1.936 0-3.523-.666-1.586-.698-2.729-1.872-1.11-1.175-1.745-2.73-.603-1.554-.603-3.3 0-1.745.603-3.3.635-1.587 1.745-2.76 1.143-1.207 2.73-1.873 1.586-.698 3.553-.698 1.936 0 3.491.698 1.587.698 2.697 1.872 1.111 1.143 1.682 2.697.603 1.524.603 3.206 0 .38-.031.73-.032.317-.064.539h-13.296q.095 1.11.508 1.999.444.889 1.11 1.555.698.635 1.555.984.889.349 1.84.349.699 0 1.365-.159.698-.19 1.27-.508.57-.349 1.015-.825.444-.476.698-1.047l2.983.857q-.857 1.872-2.856 3.078-1.967 1.174-4.601 1.174zm5.045-9.869q-.095-1.047-.54-1.936-.412-.888-1.078-1.491-.666-.635-1.555-.984-.889-.349-1.872-.349-.984 0-1.873.35-.856.348-1.523.983-.666.603-1.079 1.491-.412.889-.507 1.936zM308.773 45.037q-.698.317-1.872.73-1.143.38-2.507.38-.825 0-1.555-.221-.698-.223-1.27-.667-.539-.444-.856-1.142-.318-.73-.318-1.746V31.995h-2.22v-2.698h2.22V23.84h3.491v5.458h3.618v2.698h-3.618v9.266q0 .888.508 1.3.508.382 1.237.382.73 0 1.397-.254.666-.254.983-.413z" style="-inkscape-font-specification:'Raleway Semi-Bold'"/>
  </g>
  <circle cx="36.621" cy="35.454" r="32" fill="url(#f)"/>
  <ellipse cx="37.123" cy="16.667" fill="#fffed8" fill-opacity=".549" filter="url(#g)" opacity=".51" rx="23.071" ry="8.409" transform="matrix(1.04214 0 0 1.22053 -2.2 .154)"/>
  <path fill="url(#h)" d="M38.769 47.44a10.13 10.13 0 0 1-2.34.27c-5.58 0-10.33-4.25-10.67-10.56a19.86 19.86 0 0 1 .57-3.57l-8.66-3.64a22.3 22.3 0 0 0-1.36 7.7c0 10.82 9.27 19.59 20.09 19.59a19.53 19.53 0 0 0 7.27-1.43z" filter="url(#i)" transform="translate(-.139 .454)"/>
  <path fill="url(#j)" d="M36.429 16.94a19.52 19.52 0 0 0-8.15 1.77l4.86 8.26a10.09 10.09 0 0 1 3.29-.55c4.94 0 10.18 4.14 10.68 9.24l-11.727 1.056L54.97 45.04a20 20 0 0 0 1.52-8.32c0-10.78-9.24-19.78-20.06-19.78z" filter="url(#k)" transform="translate(-.139 .454)"/>
  <path fill="#595b57" fill-opacity=".805" d="M38.769 45.3a10.13 10.13 0 0 1-2.34.27c-5.58 0-10.33-4.25-10.67-10.56.08-1.204.272-2.4.57-3.57l-8.66-3.68a22.3 22.3 0 0 0-1.36 7.7c0 10.82 9.27 19.59 20.09 19.59a19.53 19.53 0 0 0 7.27-1.39zm-2.34-30.47a19.52 19.52 0 0 0-8.15 1.77l4.86 8.26a10.09 10.09 0 0 1 3.29-.55c4.94 0 10.069 4.14 10.569 9.24l-10.73 1.056 18.7 8.334a20 20 0 0 0 1.52-8.32c0-10.86-9.24-19.79-20.06-19.79z" class="cls-3" filter="url(#l)" transform="translate(-.139 .454)"/>
  <path fill="#fff" d="M38.63 45.754a10.13 10.13 0 0 1-2.34.27c-5.58 0-10.33-4.25-10.67-10.56.08-1.204.272-2.4.57-3.57l-8.66-3.68a22.3 22.3 0 0 0-1.36 7.7c0 10.82 9.27 19.59 20.09 19.59a19.53 19.53 0 0 0 7.27-1.39zm-2.34-30.47a19.52 19.52 0 0 0-8.15 1.77l4.86 8.26a10.09 10.09 0 0 1 3.29-.55c4.94 0 10.07 4.14 10.57 9.24L36.13 35.06l18.7 8.334a20 20 0 0 0 1.52-8.32c0-10.86-9.24-19.79-20.06-19.79z" class="cls-3"/>
  <g>
    <path fill="#fff" d="M18.571 9.065c-.998.638-3.006 2.32-3.006 2.32L4.695 36.36l6.255.27 6.957-17.296 3.63 7.677-3.643 9.602 5.778-.02 1.15-2.485L39.287 63.94h3.318l5.068-10.513 4.614 9.988s1.96-1.08 4.066-2.767c2.106-1.686 2.795-2.475 2.795-2.475l9.268-21.922-6.168-.078-7.564 18.057-3.59-7.534 4.424-10.465-6.142-.06-1.43 3.998L33.41 8.792l-3.747-.11-4.722 11.82L19.58 8.427s-.288.18-1.007.638zm12.937 9.866l12.94 27.85-3.4 7.43-12.777-26.885z" opacity=".2"/>
  </g>
</svg>
