<svg xmlns="http://www.w3.org/2000/svg" xmlns:xlink="http://www.w3.org/1999/xlink" id="svg6278" viewBox="0 0 298.266 70.104">
  <defs id="defs6260">
    <style id="style6248">
      .cls-1{fill:none}
    </style>
    <linearGradient id="linear-gradient" x1="57.55" x2="-.67" y1="4.4" y2="90.08" gradientUnits="userSpaceOnUse">
      <stop id="stop6250" offset="0" stop-color="#1abc9c"/>
      <stop id="stop6252" offset="1" stop-color="#1a5daf"/>
    </linearGradient>
    <clipPath id="clip-path">
      <circle id="circle6255" cx="36.76" cy="35" r="32" fill="none" class="cls-1"/>
    </clipPath>
    <linearGradient id="linear-gradient-2" x1="36.72" x2="27.74" y1="3.36" y2="63.33" xlink:href="#linear-gradient"/>
    <linearGradient id="linear-gradient-3" x1="46.32" x2="37.33" y1="4.8" y2="64.77" xlink:href="#linear-gradient"/>
    <clipPath id="clip-path-8">
      <circle id="circle6255-4" cx="36.76" cy="35" r="32" fill="none" class="cls-1"/>
    </clipPath>
    <linearGradient id="linear-gradient-2-6" x1="36.72" x2="27.74" y1="3.36" y2="63.33" xlink:href="#linear-gradient"/>
    <linearGradient id="linear-gradient-3-4" x1="46.32" x2="37.33" y1="4.8" y2="64.77" xlink:href="#linear-gradient"/>
    <linearGradient id="linearGradient8573" x1="57.55" x2="-.67" y1="4.4" y2="90.08" gradientTransform="translate(-.93 .94)" gradientUnits="userSpaceOnUse" xlink:href="#linear-gradient"/>
  </defs>
  <g id="layer1">
    <circle id="circle6264" cx="35.83" cy="35.939" r="32" fill="url(#linearGradient8573)"/>
    <g id="g6274" clip-path="url(#clip-path)" transform="translate(-.93 .94)">
      <path id="path6266" fill="#fff" d="M65.73 35.27L55.71 59.8l-5.3-12.52 4.83-11.81h-2.61l-3.94 9.82-3.9-9.82h-2.57l4.83 11.81-5.26 12.52-10.06-24.53-5.05-11.9 5.2-12.52L41.9 35.38h2.96L33.13 7.7h-2.42L24.9 21.28 19.05 7.7h-2.38L4.97 35.38H7.9l10.06-24.53 5.26 12.52-4.83 11.82h2.57l3.9-9.83 3.94 9.91 11.7 27.69h2.38l5.85-13.69 5.81 13.69h2.42l11.73-27.69z" opacity=".2"/>
      <path id="path6268" fill="url(#linear-gradient-2-6)" d="M39.1 47.5a10.13 10.13 0 0 1-2.34.27c-5.58 0-10.33-4.25-10.67-10.56a19.86 19.86 0 0 1 .57-3.57L18 30a22.3 22.3 0 0 0-1.36 7.7c0 10.82 9.27 19.59 20.09 19.59A19.53 19.53 0 0 0 44 55.86z"/>
      <path id="path6270" fill="url(#linear-gradient-3-4)" d="M36.76 17a19.52 19.52 0 0 0-8.15 1.77l4.86 8.26a10.09 10.09 0 0 1 3.29-.55c4.94 0 10.18 4.14 10.68 9.24l-14.05.06L55.3 45.1a20 20 0 0 0 1.52-8.32C56.82 26 47.58 17 36.76 17z"/>
      <path id="path6272" fill="#fff" d="M23.84 27.45zM39.1 45.36a10.13 10.13 0 0 1-2.34.27c-5.58 0-10.33-4.25-10.67-10.56a19.86 19.86 0 0 1 .57-3.57L18 27.82a22.3 22.3 0 0 0-1.36 7.7c0 10.82 9.27 19.59 20.09 19.59A19.53 19.53 0 0 0 44 53.72zm-2.34-30.47a19.52 19.52 0 0 0-8.15 1.77l4.86 8.26a10.09 10.09 0 0 1 3.29-.55c4.94 0 10.18 4.14 10.68 9.24l-14.05.06L55.3 43a20 20 0 0 0 1.52-8.32c0-10.86-9.24-19.79-20.06-19.79z"/>
    </g>
    <g id="text6829" fill="#f0f0f0" aria-label="Powered by" font-family="Raleway" font-size="26.667" font-weight="600" letter-spacing="0" style="line-height:300;-inkscape-font-specification:'Raleway Semi-Bold'" word-spacing="0">
      <path id="path8700" d="M102.43 27.892V8.958h7.948q1.28 0 2.346.534 1.094.533 1.867 1.413.773.853 1.2 1.973.453 1.094.453 2.24 0 1.2-.426 2.32-.4 1.094-1.147 1.974-.747.853-1.813 1.386-1.04.507-2.32.507h-5.12v6.587zm2.988-9.227h4.933q.64 0 1.147-.267.533-.266.906-.746.374-.48.587-1.12.213-.64.213-1.414 0-.8-.24-1.44-.24-.64-.666-1.093-.427-.48-.987-.72-.533-.267-1.12-.267h-4.773z"/>
      <path id="path8702" d="M124.522 28.158q-1.653 0-2.987-.586-1.306-.587-2.24-1.574-.933-.986-1.44-2.293-.506-1.333-.506-2.773 0-1.44.506-2.747.507-1.333 1.44-2.32.96-.987 2.267-1.573 1.333-.587 2.96-.587t2.933.587q1.334.586 2.267 1.573.96.987 1.467 2.32.506 1.307.506 2.747t-.506 2.773q-.507 1.307-1.467 2.293-.933.987-2.267 1.574-1.306.586-2.933.586zm-4.16-7.2q0 1.014.32 1.867t.88 1.493q.56.614 1.307.987.773.347 1.653.347t1.627-.347q.773-.373 1.333-1.013.56-.64.88-1.494.32-.853.32-1.866 0-.987-.32-1.84-.32-.88-.88-1.52t-1.333-.987q-.747-.373-1.627-.373-.853 0-1.627.373-.746.373-1.306 1.013-.56.64-.907 1.52-.32.854-.32 1.84z"/>
      <path id="path8704" d="M151.243 13.945h2.8l-5.893 13.947h-2.4l-2.614-6.48-2.586 6.48h-2.427l-5.867-13.947h2.774l4.506 11.12 2.027-5.173-2.427-5.92h2.4l1.6 4.373 1.6-4.373h2.4l-2.4 5.92 2.027 5.173z"/>
      <path id="path8706" d="M162.336 28.158q-1.627 0-2.96-.56-1.333-.586-2.293-1.573-.934-.987-1.467-2.293-.507-1.307-.507-2.774 0-1.466.507-2.773.533-1.333 1.467-2.32.96-1.013 2.293-1.573 1.333-.587 2.987-.587 1.626 0 2.933.587 1.333.586 2.267 1.573.933.96 1.413 2.267.507 1.28.507 2.693 0 .32-.027.613-.027.267-.053.454h-11.174q.08.933.427 1.68.373.746.933 1.306.587.534 1.307.827.747.293 1.547.293.586 0 1.146-.133.587-.16 1.067-.427.48-.293.853-.693.374-.4.587-.88l2.507.72q-.72 1.573-2.4 2.587-1.654.986-3.867.986zm4.24-8.293q-.08-.88-.453-1.627-.347-.746-.907-1.253-.56-.533-1.307-.827-.746-.293-1.573-.293t-1.573.293q-.72.294-1.28.827-.56.507-.907 1.253-.347.747-.427 1.627z"/>
      <path id="path8708" d="M179.688 16.478q-1.707.054-3.013.8-1.307.72-1.894 2.08v8.534h-2.933V13.945h2.72v3.12q.747-1.44 1.893-2.347 1.174-.906 2.48-.906h.427q.187 0 .32.026z"/>
      <path id="path8710" d="M188.17 28.158q-1.627 0-2.96-.56-1.334-.586-2.294-1.573-.933-.987-1.467-2.293-.506-1.307-.506-2.774 0-1.466.506-2.773.534-1.333 1.467-2.32.96-1.013 2.293-1.573 1.334-.587 2.987-.587 1.627 0 2.933.587 1.334.586 2.267 1.573.933.96 1.413 2.267.507 1.28.507 2.693 0 .32-.027.613-.027.267-.053.454h-11.173q.08.933.426 1.68.374.746.934 1.306.586.534 1.306.827.747.293 1.547.293.587 0 1.147-.133.586-.16 1.066-.427.48-.293.854-.693.373-.4.586-.88l2.507.72q-.72 1.573-2.4 2.587-1.653.986-3.867.986zm4.24-8.293q-.08-.88-.454-1.627-.347-.746-.907-1.253-.56-.533-1.306-.827-.747-.293-1.574-.293-.826 0-1.573.293-.72.294-1.28.827-.56.507-.907 1.253-.346.747-.426 1.627z"/>
      <path id="path8712" d="M203.468 28.158q-1.44 0-2.667-.56-1.2-.586-2.08-1.573-.88-.987-1.386-2.293-.48-1.307-.48-2.8 0-1.494.453-2.8.48-1.334 1.307-2.294.826-.986 1.973-1.546 1.173-.587 2.533-.587 1.627 0 2.907.8t2 2.08v-8.16h2.933v16q0 .907.854.96v2.507q-.454.08-.8.106-.347.027-.64.027-1.654-.16-1.867-1.52l-.053-1.147q-.8 1.36-2.134 2.08-1.333.72-2.853.72zm.747-2.506q.56 0 1.173-.214.613-.213 1.147-.586.533-.374.933-.88.4-.507.56-1.094v-3.653q-.24-.64-.667-1.173-.426-.56-.986-.96-.534-.427-1.147-.64-.613-.24-1.227-.24-.933 0-1.706.4-.747.4-1.307 1.066-.533.667-.827 1.547-.293.853-.293 1.76 0 .96.32 1.813.347.854.907 1.494.586.613 1.386.986.8.374 1.734.374z"/>
      <path id="path8714" d="M228.822 28.158q-1.627 0-2.934-.746-1.28-.774-2.026-2.054v2.534h-2.587V8.425h2.933v8.16q.827-1.333 2.054-2.107 1.253-.773 2.933-.773 1.387 0 2.533.613 1.147.587 1.947 1.6.827.987 1.253 2.32.454 1.307.454 2.747 0 1.493-.507 2.8-.507 1.307-1.387 2.293-.88.96-2.08 1.52-1.2.56-2.586.56zm-.774-2.506q.96 0 1.76-.374.8-.4 1.36-1.04.587-.64.907-1.466.32-.854.32-1.787 0-.933-.32-1.787-.293-.88-.853-1.52-.534-.666-1.307-1.066-.747-.4-1.653-.4-.694 0-1.307.24-.587.24-1.12.666-.507.4-.933.96-.4.534-.694 1.147v3.68q.16.613.56 1.12.4.48.934.853.56.374 1.173.587.613.187 1.173.187z"/>
      <path id="path8716" d="M237.952 31.198q.373.08.693.107.32.027.587.027.346 0 .613-.08t.507-.427q.266-.32.56-1.013.32-.694.746-1.92l-5.706-13.947h3.013l4.32 11.36 3.84-11.36h2.773l-6.373 17.173q-.533 1.44-1.6 2.134-1.067.693-2.48.693-.773 0-1.493-.213z"/>
    </g>
    <g id="text6833" fill="#f0f0f0" aria-label="MyEtherWallet" font-family="Raleway" font-size="26.667" font-weight="600" letter-spacing="0" style="line-height:300;-inkscape-font-specification:'Raleway Semi-Bold'" word-spacing="0">
      <path id="path8673" d="M101.268 58.64V45.013l-5.626 10.32h-1.654l-5.653-10.32V58.64h-2.987V39.707h3.2l6.267 11.573 6.267-11.573h3.2V58.64z"/>
      <path id="path8675" d="M108.526 61.947q.373.08.693.106.32.027.587.027.346 0 .613-.08t.507-.427q.266-.32.56-1.013.32-.693.746-1.92l-5.706-13.947h3.013l4.32 11.36 3.84-11.36h2.773L114.1 61.867q-.533 1.44-1.6 2.133-1.067.693-2.48.693-.773 0-1.493-.213z"/>
      <path id="path8677" d="M136.043 56v2.64h-12.986V39.707h12.746v2.64h-9.76v5.386h8.454v2.48h-8.454V56z"/>
      <path id="path8679" d="M146.329 57.92q-.587.267-1.573.613-.96.32-2.107.32-.693 0-1.307-.186-.586-.187-1.066-.56-.454-.374-.72-.96-.267-.614-.267-1.467v-8.72h-1.867v-2.267h1.867v-4.586h2.933v4.586h3.04v2.267h-3.04v7.787q0 .746.427 1.093.427.32 1.04.32t1.173-.213q.56-.214.827-.347z"/>
      <path id="path8681" d="M160.736 58.64h-2.933v-7.813q0-1.92-.693-2.827-.694-.933-1.974-.933-.586 0-1.2.24-.613.24-1.173.693-.533.427-.987 1.04-.426.587-.64 1.307v8.293h-2.933V39.173h2.933v8.32q.827-1.44 2.187-2.24 1.387-.8 3.013-.8 1.28 0 2.134.48.853.454 1.36 1.227.506.773.693 1.813.213 1.014.213 2.16z"/>
      <path id="path8683" d="M170.41 58.907q-1.627 0-2.96-.56-1.334-.587-2.294-1.574-.933-.986-1.466-2.293-.507-1.307-.507-2.773 0-1.467.507-2.774.533-1.333 1.466-2.32.96-1.013 2.294-1.573 1.333-.587 2.986-.587 1.627 0 2.934.587 1.333.587 2.266 1.573.934.96 1.414 2.267.506 1.28.506 2.693 0 .32-.026.614-.027.266-.054.453h-11.173q.08.933.427 1.68.373.747.933 1.307.587.533 1.307.826.746.294 1.546.294.587 0 1.147-.134.587-.16 1.067-.426.48-.294.853-.694.373-.4.587-.88l2.506.72q-.72 1.574-2.4 2.587-1.653.987-3.866.987zm4.24-8.294q-.08-.88-.454-1.626-.346-.747-.906-1.254-.56-.533-1.307-.826-.747-.294-1.573-.294-.827 0-1.574.294-.72.293-1.28.826-.56.507-.906 1.254-.347.746-.427 1.626z"/>
      <path id="path8685" d="M187.762 47.227q-1.707.053-3.014.8-1.306.72-1.893 2.08v8.533h-2.933V44.693h2.72v3.12q.746-1.44 1.893-2.346 1.173-.907 2.48-.907h.427q.186 0 .32.027z"/>
      <path id="path8687" d="M196.704 39.787h2.8l2.32 6.426 2.347-6.426h2.826l-3.253 8.426 2.853 6.96 5.894-15.466h3.253l-7.787 18.933h-2.586l-3.52-8.48-3.547 8.48h-2.56l-7.787-18.933h3.227l5.947 15.466 2.8-6.96z"/>
      <path id="path8689" d="M219.932 58.907q-1.014 0-1.894-.32-.853-.347-1.493-.934-.613-.586-.987-1.386-.346-.8-.346-1.734 0-.986.426-1.786.427-.8 1.2-1.387.8-.587 1.867-.907 1.093-.32 2.4-.32.987 0 1.947.187.96.16 1.733.453v-.96q0-1.546-.88-2.4-.88-.88-2.533-.88-1.12 0-2.214.427-1.066.4-2.213 1.173l-.907-1.866q2.694-1.814 5.6-1.814 2.88 0 4.48 1.467 1.6 1.467 1.6 4.213v5.04q0 .507.187.72.187.214.64.24v2.507q-.427.08-.8.107-.347.026-.64.026-.853-.053-1.307-.453-.426-.4-.533-1.067l-.08-.88q-.933 1.227-2.32 1.894-1.36.64-2.933.64zm.8-2.16q1.066 0 2-.374.96-.4 1.493-1.093.56-.48.56-1.013v-1.84q-.747-.294-1.6-.454-.827-.16-1.627-.16-1.573 0-2.586.694-.987.666-.987 1.786 0 1.04.773 1.76.774.694 1.974.694z"/>
      <path id="path8691" d="M231.303 39.173h2.933v15.36q0 .774.4 1.227.4.427 1.12.427.293 0 .693-.08.4-.107.747-.267l.427 2.373q-.64.294-1.52.454-.88.186-1.574.186-1.52 0-2.373-.826-.853-.827-.853-2.347z"/>
      <path id="path8693" d="M239.271 39.173h2.934v15.36q0 .774.4 1.227.4.427 1.12.427.293 0 .693-.08.4-.107.747-.267l.426 2.373q-.64.294-1.52.454-.88.186-1.573.186-1.52 0-2.373-.826-.854-.827-.854-2.347z"/>
      <path id="path8695" d="M253.587 58.907q-1.627 0-2.96-.56-1.334-.587-2.294-1.574-.933-.986-1.466-2.293-.507-1.307-.507-2.773 0-1.467.507-2.774.533-1.333 1.466-2.32.96-1.013 2.294-1.573 1.333-.587 2.986-.587 1.627 0 2.934.587 1.333.587 2.266 1.573.934.96 1.414 2.267.506 1.28.506 2.693 0 .32-.026.614-.027.266-.054.453H249.48q.08.933.427 1.68.373.747.933 1.307.587.533 1.307.826.746.294 1.546.294.587 0 1.147-.134.587-.16 1.067-.426.48-.294.853-.694.373-.4.587-.88l2.506.72q-.72 1.574-2.4 2.587-1.653.987-3.866.987zm4.24-8.294q-.08-.88-.454-1.626-.346-.747-.906-1.254-.56-.533-1.307-.826-.747-.294-1.573-.294-.827 0-1.574.294-.72.293-1.28.826-.56.507-.906 1.254-.347.746-.427 1.626z"/>
      <path id="path8697" d="M270.756 57.92q-.587.267-1.573.613-.96.32-2.107.32-.693 0-1.307-.186-.586-.187-1.066-.56-.454-.374-.72-.96-.267-.614-.267-1.467v-8.72h-1.867v-2.267h1.867v-4.586h2.933v4.586h3.04v2.267h-3.04v7.787q0 .746.427 1.093.427.32 1.04.32t1.173-.213q.56-.214.827-.347z"/>
    </g>
  </g>
</svg>
